<?xml version="1.0" encoding="utf-8"?>
<!-- Generator: Adobe Illustrator 22.1.0, SVG Export Plug-In . SVG Version: 6.00 Build 0)  -->
<svg version="1.1" id="Layer_1" xmlns="http://www.w3.org/2000/svg" xmlns:xlink="http://www.w3.org/1999/xlink" x="0px" y="0px"
	 viewBox="0 0 624 352" style="enable-background:new 0 0 624 352;" xml:space="preserve">
<style type="text/css">
	.st0{fill:#FFFFFF;}
</style>
<rect width="624" height="352"/>
<g>
	<g>
		<path class="st0" d="M213.4,157.6c-0.4,0.7-1,1.9-1.8,3.4c-0.8,1.5-1.2,2.7-1.3,3.7c0,0.2,0,0.4,0,0.6c-1.5,0.5-2.6,0.7-3.5,0.7
			c-1,0-1.4-0.4-1.3-1.1c0-0.4,0.3-1,0.7-1.6c2.1-3.3,5.2-8.4,9.4-15.3c0.8-1.2,2.2-3.5,4.2-6.8l2.3-0.6c0.9-0.2,1.7-0.4,2.3-0.4
			c1.2,0,1.7,0.9,1.5,2.7c0,0.6-0.1,1.4-0.3,2.5c-0.1,1.1-0.2,2-0.3,2.5l-0.7,8.2c-0.3,4,0,6.9,1.1,8.6c-1.5,0.8-2.9,1.2-4.1,1.2
			c-1.7,0-2.4-1.7-2.2-5l0.2-3.4H213.4z M214.7,154.9h5.1l0.2-2.1l0.1-1.6c0.1-0.6,0.2-1.6,0.3-2.9c0.1-1.1,0.2-1.9,0.3-2.5l0-0.5
			l0.1-1.5C218.9,147.1,216.9,150.8,214.7,154.9z"/>
		<path class="st0" d="M235.5,141.4c1.3-0.5,2.6-0.7,3.7-0.7c1.5,0,2.2,0.6,2.1,1.7c-0.1,0.7-0.3,1.6-0.7,2.8l-1,2.7l-2.8,9.8
			c-0.5,1.9-0.9,3.4-0.9,4.4c-0.1,1.1,0.1,2,0.6,2.8c-1.2,0.7-2.3,1.1-3.3,1.1c-1.9,0-2.8-0.9-2.6-2.6c0.1-0.8,0.5-2.5,1.1-4.9
			l2.8-10c0.7-2.6,1.1-4.3,1.2-5.1C235.8,142.6,235.7,142,235.5,141.4z"/>
		<path class="st0" d="M243.5,166.1c0.3-1.2,0.5-2.8,0.7-4.7c0.1-1.4,0.2-2.9,0.3-4.6c0.1-1.1,0.2-2.8,0.3-5.1
			c0.1-1.8-0.2-3.4-0.8-4.9c1.5-0.8,2.7-1.2,3.6-1.2c1.4,0,2,1.1,1.9,3.2l-0.5,9.6c3.5-4.6,5.3-8.3,5.6-11.1c0-0.2,0-0.3,0-0.4
			c1-0.4,1.9-0.7,2.8-0.7c1.2,0,1.8,1.2,1.6,3.5c0-0.1-0.1,1-0.4,3.4c-0.1,1.4-0.4,3.9-0.8,7.5c3.6-5.7,5.6-9.7,5.8-12.1
			c0.1-0.8,0-1.5-0.3-2c1.3-0.6,2.4-0.8,3.5-0.8c1,0,1.5,0.4,1.4,1.3c-0.1,1-1.5,3.8-4.2,8.4c-2.6,4.5-4.4,7.2-5.4,8.3
			c-1.3,1.3-3,2.2-5.2,2.6c0.1-0.8,0.2-1.4,0.2-1.8c0.1-0.9,0.2-2.5,0.3-5c0.1-1.2,0.1-2.1,0.2-2.7c0.1-0.9,0.2-1.6,0.2-2.3
			c-1.7,3.5-3,5.9-4.1,7.4C248.3,164.4,246,165.9,243.5,166.1z"/>
		<path class="st0" d="M279.9,158.1c-3.4,5.3-6.3,8-8.7,8c-2.5,0-3.7-1.8-3.3-5.4c0.3-3.3,1.5-6.6,3.5-9.8c2.4-3.7,5.1-5.6,8.2-5.6
			c1.4,0,2.6,0.4,3.6,1.1c0.6-0.6,1.3-0.9,2.3-0.9c1.1,0,2.2,0.3,3.2,0.8c-0.9,1.5-1.8,3.9-2.7,7.2c-0.9,3.1-1.4,5.7-1.5,7.6
			c-0.1,1.4,0,2.6,0.4,3.7c-0.9,0.7-1.9,1.1-3,1.1c-2,0-3-1.1-2.8-3.4C279.2,161.4,279.5,159.9,279.9,158.1z M282,150.7
			c-1-1.5-2-2.3-3.1-2.3c-1.4,0-2.7,1.6-3.9,4.7c-1,2.5-1.5,4.6-1.7,6.5c-0.1,1.4,0.1,2.1,0.8,2.1c0.7,0,2.1-1.6,4.2-4.9
			C279.9,154.5,281.1,152.4,282,150.7z"/>
		<path class="st0" d="M291.7,147.1c1.4-1,2.9-1.5,4.3-1.5c1.4,0,2.1,1.1,2.1,3.4c0,2.6,0.1,6.2,0.2,10.8l3.9-6
			c1.8-2.7,2.7-4.8,2.8-6.3c0-0.4,0-1-0.1-1.7c3,0.1,4.5,0.8,4.4,2.2c-0.1,1.4-1.6,4-4.3,7.8c-2.7,3.7-5.5,7-8.5,10
			c-3.3,3.3-5.7,4.9-7.2,4.9c-1.6,0-2.3-0.5-2.2-1.6c0.1-0.8,0.6-1.8,1.6-3c0.5,0.4,1.1,0.6,1.7,0.6c1.4,0,2.8-0.9,3.9-2.8
			C293.7,154.4,292.8,148.8,291.7,147.1z"/>
		<path class="st0" d="M311.1,160.1c0.5,2.3,1.7,3.4,3.4,3.4c1.8,0,2.8-0.9,2.9-2.8c0.1-1-1.2-2.6-3.9-4.7c-0.9-1-1.3-2.2-1.2-3.5
			c0.2-2.3,1.2-4,2.9-5.3c1.6-1.2,3.5-1.8,5.8-1.8c3,0,4.4,0.6,4.3,1.7c-0.1,1-0.9,2-2.3,3c-1-1.6-2.1-2.4-3.2-2.4
			c-1.5,0-2.4,0.8-2.5,2.5c-0.1,0.9,0.4,1.7,1.3,2.4l2.7,2.1c0.9,1,1.4,2.2,1.2,3.7c-0.2,2.5-1.3,4.4-3.2,5.8
			c-1.7,1.3-3.9,1.9-6.4,1.9c-3.3,0-5-0.8-4.8-2.4C308.3,162.5,309.3,161.3,311.1,160.1z"/>
	</g>
	<g>
		<path class="st0" d="M340.4,159.9c-0.1,2.5,1.2,3.7,3.9,3.7c2.9,0,4.5-1.3,4.7-3.9c0.1-1.3-0.4-2.4-1.7-3.4
			c-0.1-0.1-1.3-1-3.4-2.6c-1.2-1.1-1.8-2.4-1.6-3.9c0.2-2.6,1.5-4.8,3.7-6.5c2.1-1.6,4.6-2.4,7.3-2.4c3.3,0,4.9,0.7,4.8,2.1
			c-0.1,1-0.9,1.9-2.5,2.9c-0.8-1.6-2.2-2.4-4.3-2.4c-2.5,0-3.9,1.1-4.1,3.2c-0.1,0.9,0.6,2,2.1,3.3c1.1,0.8,2.2,1.7,3.2,2.5
			c1.3,1.3,1.8,2.8,1.7,4.4c-0.2,2.7-1.6,5-4.2,6.8c-2.4,1.8-5.1,2.7-7.9,2.7c-1.2,0-2.4-0.2-3.6-0.6c-1.5-0.5-2.3-1.3-2.2-2.2
			C336.6,162.1,337.9,160.9,340.4,159.9z"/>
		<path class="st0" d="M373.2,146.5c1-0.3,1.9-0.4,2.9-0.4c1.7,0,2.5,0.6,2.4,1.8c-0.1,0.6-0.2,1.4-0.6,2.3l-0.8,2.3
			c-1.2,3.4-1.9,6.4-2.1,8.8c-0.1,1.4,0,2.6,0.5,3.6c-0.9,0.7-2,1.1-3.1,1.1c-2.1,0-3-1.1-2.8-3.3c0.1-1.2,0.4-2.6,0.8-4.2
			c-3.1,5.2-6,7.7-8.8,7.7c-2.1,0-3-1-2.9-3.1c0.1-1.7,0.8-4.1,1.9-7.4c1.1-3.3,1.7-5.7,1.9-7.4c0-0.5,0-1-0.2-1.5
			c1.3-0.4,2.5-0.7,3.5-0.7c1.5,0,2.2,0.6,2.1,1.8c0,0.4-0.2,1.2-0.6,2.4c-1.9,6-2.9,9.6-3.1,10.9c0,0.5,0.1,0.8,0.4,0.8
			c1,0,2.7-2.1,5.1-6.2c2.3-4,3.5-6.6,3.6-8C373.4,147.5,373.3,147,373.2,146.5z"/>
		<path class="st0" d="M388.4,153.7c3.1-5.2,6-7.7,8.8-7.7c2.1,0,3,1,2.9,3c-0.1,1.5-0.7,3.7-1.7,6.5c-1,2.9-1.5,5.1-1.6,6.5
			c-0.1,1.2,0.1,2.1,0.6,2.9c-1.2,0.7-2.3,1-3.4,1c-1.9,0-2.7-0.9-2.6-2.6c0.1-1.3,0.4-2.8,1-4.7c1.4-4.7,2.1-7.3,2.2-7.8
			c0-0.5-0.1-0.8-0.4-0.8c-1,0-2.7,2.1-5.1,6.2c-2.3,4-3.5,6.6-3.6,8c0,0.4,0,0.8,0.1,1.3c-1,0.3-2,0.4-2.9,0.4
			c-1.7,0-2.5-0.6-2.4-1.8c0.1-0.6,0.2-1.4,0.6-2.3l0.8-2.3c1.8-5.3,2.9-9.1,3.1-11.3c0-0.5,0-1-0.2-1.5c1.3-0.4,2.5-0.7,3.5-0.7
			c1.5,0,2.2,0.6,2.1,1.8C390,148.6,389.5,150.5,388.4,153.7z"/>
		<path class="st0" d="M410.6,153.7c3.1-5.2,6-7.7,8.8-7.7c2.1,0,3,1,2.9,3c-0.1,1.5-0.7,3.7-1.7,6.5c-1,2.9-1.5,5.1-1.6,6.5
			c-0.1,1.2,0.1,2.1,0.6,2.9c-1.2,0.7-2.3,1-3.4,1c-1.9,0-2.7-0.9-2.6-2.6c0.1-1.3,0.4-2.8,1-4.7c1.4-4.7,2.1-7.3,2.2-7.8
			c0-0.5-0.1-0.8-0.4-0.8c-1,0-2.7,2.1-5.1,6.2c-2.3,4-3.5,6.6-3.6,8c0,0.4,0,0.8,0.1,1.3c-1,0.3-2,0.4-2.9,0.4
			c-1.7,0-2.5-0.6-2.4-1.8c0.1-0.6,0.2-1.4,0.6-2.3l0.8-2.3c1.8-5.3,2.9-9.1,3.1-11.3c0-0.5,0-1-0.2-1.5c1.3-0.4,2.5-0.7,3.5-0.7
			c1.5,0,2.2,0.6,2.1,1.8C412.1,148.6,411.6,150.5,410.6,153.7z"/>
		<path class="st0" d="M426.5,147.6c1.5-1,2.9-1.5,4.4-1.5c1.4,0,2.2,1.1,2.2,3.3c0,2.5,0.1,6,0.3,10.5l4-5.8
			c1.8-2.6,2.8-4.7,2.9-6.2c0-0.4,0-0.9-0.1-1.7c3.1,0.1,4.6,0.8,4.5,2.1c-0.1,1.4-1.6,3.9-4.4,7.6c-2.7,3.6-5.6,6.9-8.6,9.7
			c-3.4,3.2-5.8,4.8-7.3,4.8c-1.6,0-2.4-0.5-2.3-1.6c0.1-0.8,0.6-1.7,1.6-2.9c0.5,0.4,1.1,0.6,1.7,0.6c1.5,0,2.8-0.9,4-2.7
			C428.5,154.7,427.6,149.3,426.5,147.6z"/>
	</g>
	<g>
		<path class="st0" d="M213.5,193.4c-1.2,3.9-1.9,6.5-2,7.8c0,0.5,0,0.9,0.2,1.3c-1.5,0.6-2.9,0.9-4,0.9c-1.4,0-2-0.4-1.9-1.3
			c0.1-0.6,0.3-1.4,0.6-2.4c3.1-8.7,4.7-14.5,5-17.7c0-0.6,0-1.1-0.3-1.6c2.2-1.3,5.4-2,9.5-2c4.7,0,6.9,1.7,6.6,5.1
			c-0.2,2.9-1.9,5.3-4.9,7.1C219.8,192.1,216.9,193.1,213.5,193.4z M214.2,190.9c4.6-0.4,7.1-2.6,7.4-6.7c0.2-2.1-0.8-3.2-2.9-3.2
			c-0.4,0-0.9,0.1-1.7,0.2L214.2,190.9z"/>
		<path class="st0" d="M235,191.3c2.9-4.9,5.8-7.4,8.6-7.4c2.1,0,3,1,2.8,3c-0.1,1.4-0.6,3.5-1.6,6.3c-0.9,2.8-1.5,4.9-1.6,6.3
			c-0.1,1.2,0.1,2.1,0.6,2.9c-1.2,0.7-2.3,1-3.4,1c-1.9,0-2.7-0.9-2.6-2.6c0.1-1.3,0.6-3.4,1.5-6.1c0.9-2.7,1.4-4.7,1.5-6
			c0-0.5-0.1-0.8-0.4-0.8c-1.1,0-2.8,2-5.1,6c-2.2,3.8-3.3,6.4-3.5,7.8c0,0.4,0,0.8,0.1,1.3c-1,0.3-2,0.4-2.9,0.4
			c-1.7,0-2.5-0.6-2.4-1.8c0.1-0.8,0.3-1.8,0.8-3.1l1.1-3.1l2.8-9.7c0.6-2.1,1-3.7,1.1-4.8c0-0.3,0-0.7-0.1-1.2c1.2-0.7,2.3-1,3.4-1
			c1.5,0,2.2,0.6,2.1,1.9C237.9,181.4,236.9,184.9,235,191.3z"/>
		<path class="st0" d="M252.7,184.4c1.4-0.5,2.7-0.7,3.8-0.7c1.5,0,2.2,0.5,2.1,1.6c0,0.5-0.2,1.1-0.4,1.8
			c-2.2,6.2-3.3,10.3-3.5,12.6c-0.1,1.1,0.1,2,0.7,2.7c-1.2,0.7-2.3,1-3.4,1c-1.9,0-2.8-0.9-2.7-2.6c0.1-1.7,0.8-4.1,1.9-7.4
			c1.1-3.2,1.8-5.7,1.9-7.4C253.1,185.6,253,185,252.7,184.4z M259.7,180.8c-1.1,0.5-2.1,0.7-3,0.7c-1.3,0-1.9-0.4-1.9-1.1
			c0-0.2,0.1-0.6,0.2-1.1s0.2-0.8,0.2-1.1c0-0.2,0-0.4-0.1-0.6c1.3-0.4,2.4-0.7,3.3-0.7c1.4,0,2.1,0.5,2,1.6
			C260.5,179.1,260.2,179.8,259.7,180.8z"/>
		<path class="st0" d="M265.7,179.6c1.4-0.5,2.6-0.7,3.8-0.7c1.5,0,2.2,0.5,2.1,1.6c-0.1,0.7-0.3,1.6-0.7,2.7l-1,2.7l-2.8,9.6
			c-0.5,1.9-0.9,3.3-0.9,4.3c-0.1,1.1,0.1,2,0.7,2.7c-1.2,0.7-2.3,1-3.4,1c-1.9,0-2.8-0.9-2.7-2.6c0.1-0.8,0.5-2.4,1.1-4.8l2.9-9.8
			c0.7-2.5,1.1-4.2,1.2-5C266,180.8,266,180.2,265.7,179.6z"/>
		<path class="st0" d="M283.8,195.9c-3.4,5.2-6.3,7.8-8.9,7.8c-2.6,0-3.7-1.8-3.4-5.3c0.3-3.2,1.5-6.4,3.6-9.5
			c2.4-3.6,5.2-5.4,8.3-5.4c1.4,0,2.7,0.4,3.7,1.1c0.6-0.6,1.4-0.9,2.3-0.9c1.1,0,2.2,0.3,3.3,0.8c-0.9,1.5-1.8,3.8-2.7,7
			c-0.9,3.1-1.4,5.5-1.5,7.4c-0.1,1.4,0,2.5,0.4,3.6c-0.9,0.7-2,1.1-3.1,1.1c-2.1,0-3-1.1-2.8-3.3
			C283.2,199.1,283.4,197.6,283.8,195.9z M286,188.7c-1-1.5-2.1-2.2-3.2-2.2c-1.4,0-2.7,1.5-3.9,4.5c-1,2.4-1.5,4.5-1.7,6.3
			c-0.1,1.4,0.1,2.1,0.8,2.1c0.7,0,2.1-1.6,4.3-4.7C283.8,192.4,285,190.4,286,188.7z"/>
		<path class="st0" d="M305.5,195.9c-3.4,5.2-6.3,7.8-8.9,7.8c-2.6,0-3.7-1.8-3.4-5.3c0.3-3.2,1.5-6.3,3.5-9.3
			c2.4-3.5,5.2-5.2,8.2-5.2c1.5,0,2.7,0.3,3.7,1c0.4-1.5,0.7-2.7,0.8-3.8c0-0.4,0-0.8-0.1-1.3c1.2-0.7,2.3-1,3.4-1
			c1.5,0,2.2,0.6,2.1,1.9c-0.1,0.7-0.3,1.5-0.6,2.6c-2.5,7.6-3.9,12.8-4.1,15.5c-0.1,1.4,0,2.5,0.4,3.6c-0.9,0.7-2,1.1-3.1,1.1
			c-2.1,0-3-1.1-2.8-3.3C304.9,199.1,305.1,197.6,305.5,195.9z M307.5,189.1c-1-1.5-2-2.2-3.2-2.2c-1.4,0-2.7,1.5-3.9,4.4
			c-0.9,2.3-1.5,4.3-1.6,6.1c-0.1,1.4,0.1,2.1,0.8,2.1c0.7,0,2.1-1.6,4.3-4.7C304.7,193.4,305.9,191.6,307.5,189.1z"/>
		<path class="st0" d="M321.2,195.3c-0.2,0.8-0.3,1.4-0.3,1.9c-0.2,2.4,0.7,3.6,2.7,3.6c1.9,0,4.1-0.9,6.7-2.8
			c0.2,0.5,0.3,0.9,0.3,1.3c-0.1,1.4-1.4,2.5-3.7,3.3c-1.8,0.7-3.6,1-5.3,1c-4.6,0-6.8-1.9-6.4-5.8c0.3-3.6,1.7-6.8,4.3-9.7
			c2.8-3.1,5.9-4.7,9.5-4.7c2.9,0,4.2,1.2,4,3.5c-0.2,2.7-1.6,4.7-4.1,6.3C326.7,194.6,324.1,195.2,321.2,195.3z M321.7,192.9
			c3.9-0.1,6-1.7,6.2-4.8c0.1-1.3-0.3-2-1.3-2C324.8,186.1,323.1,188.4,321.7,192.9z"/>
		<path class="st0" d="M339.9,179.6c1.4-0.5,2.6-0.7,3.8-0.7c1.5,0,2.2,0.5,2.1,1.6c-0.1,0.7-0.3,1.6-0.7,2.7l-1,2.7l-2.8,9.6
			c-0.5,1.9-0.9,3.3-0.9,4.3c-0.1,1.1,0.1,2,0.7,2.7c-1.2,0.7-2.3,1-3.4,1c-1.9,0-2.8-0.9-2.7-2.6c0.1-0.8,0.5-2.4,1.1-4.8l2.9-9.8
			c0.7-2.5,1.1-4.2,1.2-5C340.2,180.8,340.2,180.2,339.9,179.6z"/>
		<path class="st0" d="M350,207.4c-1.3,0.5-2.5,0.8-3.4,0.8c-1.5,0-2.2-0.6-2.1-1.8c0-0.5,0.2-1.1,0.5-1.8l0.6-1.8l3.5-12.1
			c0.6-2.1,1-3.7,1.1-4.8c0-0.4,0-0.8-0.1-1.3c1.3-0.5,2.4-0.7,3.4-0.7c1.5,0,2.2,0.6,2.1,1.9c-0.1,0.7-0.6,2.6-1.7,5.7
			c3.4-5.2,6.4-7.8,8.9-7.8c2.6,0,3.7,1.8,3.4,5.3c-0.3,3.2-1.5,6.3-3.5,9.3c-2.4,3.5-5.2,5.2-8.2,5.2c-1.4,0-2.7-0.4-3.7-1.1
			c-0.4,1.6-0.7,2.7-0.7,3.5C350,206.1,350,206.7,350,207.4z M352,198.1c1,1.5,2.1,2.2,3.2,2.2c1.4,0,2.7-1.5,3.9-4.4
			c0.9-2.3,1.5-4.3,1.6-6.1c0.1-1.4-0.1-2.1-0.8-2.1c-0.6,0-2,1.5-4.2,4.6C353.9,194.9,352.7,196.8,352,198.1z"/>
		<path class="st0" d="M375.7,191.3c2.9-4.9,5.8-7.4,8.6-7.4c2.1,0,3,1,2.8,3c-0.1,1.4-0.7,3.5-1.6,6.3c-0.9,2.8-1.5,4.9-1.6,6.3
			c-0.1,1.2,0.1,2.1,0.6,2.9c-1.2,0.7-2.3,1-3.4,1c-1.9,0-2.7-0.9-2.6-2.6c0.1-1.3,0.6-3.4,1.5-6.1s1.4-4.7,1.5-6
			c0-0.5-0.1-0.8-0.4-0.8c-1.1,0-2.8,2-5.1,6c-2.2,3.8-3.3,6.4-3.5,7.8c0,0.4,0,0.8,0.1,1.3c-1,0.3-2,0.4-2.9,0.4
			c-1.7,0-2.5-0.6-2.4-1.8c0.1-0.8,0.3-1.8,0.8-3.1l1.1-3.1l2.8-9.7c0.6-2.1,1-3.7,1.1-4.8c0-0.3,0-0.7-0.1-1.2c1.2-0.7,2.3-1,3.4-1
			c1.5,0,2.2,0.6,2.1,1.9C378.6,181.4,377.6,184.9,375.7,191.3z"/>
		<path class="st0" d="M393.4,184.4c1.4-0.5,2.7-0.7,3.8-0.7c1.5,0,2.2,0.5,2.1,1.6c0,0.5-0.2,1.1-0.4,1.8
			c-2.2,6.2-3.3,10.3-3.5,12.6c-0.1,1.1,0.1,2,0.7,2.7c-1.2,0.7-2.3,1-3.4,1c-1.9,0-2.8-0.9-2.7-2.6c0.1-1.7,0.8-4.1,1.9-7.4
			c1.1-3.2,1.8-5.7,1.9-7.4C393.8,185.6,393.7,185,393.4,184.4z M400.4,180.8c-1.1,0.5-2.1,0.7-3,0.7c-1.3,0-1.9-0.4-1.9-1.1
			c0-0.2,0.1-0.6,0.2-1.1c0.1-0.5,0.2-0.8,0.2-1.1c0-0.2,0-0.4-0.1-0.6c1.3-0.4,2.4-0.7,3.3-0.7c1.4,0,2.1,0.5,2,1.6
			C401.2,179.1,400.9,179.8,400.4,180.8z"/>
		<path class="st0" d="M413,195.9c-3.4,5.2-6.3,7.8-8.9,7.8c-2.6,0-3.7-1.8-3.4-5.3c0.3-3.2,1.5-6.4,3.6-9.5
			c2.4-3.6,5.2-5.4,8.3-5.4c1.4,0,2.7,0.4,3.7,1.1c0.6-0.6,1.4-0.9,2.3-0.9c1.1,0,2.2,0.3,3.3,0.8c-0.9,1.5-1.8,3.8-2.7,7
			c-0.9,3.1-1.4,5.5-1.5,7.4c-0.1,1.4,0,2.5,0.4,3.6c-0.9,0.7-2,1.1-3.1,1.1c-2.1,0-3-1.1-2.8-3.3
			C412.3,199.1,412.6,197.6,413,195.9z M415.1,188.7c-1-1.5-2.1-2.2-3.2-2.2c-1.4,0-2.7,1.5-3.9,4.5c-1,2.4-1.5,4.5-1.7,6.3
			c-0.1,1.4,0.1,2.1,0.8,2.1c0.7,0,2.1-1.6,4.3-4.7C412.9,192.4,414.2,190.4,415.1,188.7z"/>
	</g>
	<g>
		<path class="st0" d="M146.5,144.4c-0.9,0-1.8,0.2-2.6,0.5l0-0.6c0.1-1.9,1.4-2.9,3.8-2.9h3.3c0,0,0.7,0,2.1-0.1
			c0.6,0,1.2-0.2,1.8-0.3l0,0.4c-0.1,2-1.3,3-3.5,3.1l-5.2,18.2c1,0,1.8-0.1,2.6-0.4c0,0.3,0,0.6,0,0.8c-0.2,1.8-1.2,2.7-3,2.7
			l-4.3,0c-1.5,0-2.8,0.1-3.9,0.4c0.2-2.3,1.4-3.4,3.5-3.4L146.5,144.4z"/>
		<path class="st0" d="M158.5,151.7h-0.7c-1.1,0-2.2,0.2-3.3,0.6c0-0.5,0-0.8,0-1c0.1-1.2,0.6-2,1.6-2.4c0.5-0.2,1.5-0.3,3.2-0.3
			c0.7-2.6,1.2-4.3,1.2-5c0.1-0.6,0-1.2-0.3-1.8c1.4-0.5,2.6-0.7,3.7-0.7c1.5,0,2.2,0.6,2.1,1.7c-0.1,0.7-0.3,1.7-0.7,3l-1,3h1.6
			c1.3,0,2.7-0.1,4.2-0.4c-0.3,2.3-1.8,3.5-4.3,3.5c-0.3,0-0.7,0-1.2,0c-0.5,0-0.9,0-1.2,0c-1.2,4.2-1.9,7-2.1,8.4
			c-0.1,1.5,0.4,2.3,1.5,2.3c1,0,2.2-0.5,3.6-1.5c0.3,0.6,0.4,1.1,0.3,1.6c-0.1,1.1-0.9,2-2.4,2.7c-1.2,0.6-2.5,0.8-3.7,0.8
			c-3.2,0-4.7-1.6-4.4-4.7C156.4,159.4,157.1,156.1,158.5,151.7z"/>
		<path class="st0" d="M177.7,149c-0.6,0.2-1.2,0.2-1.8,0.2c-1,0-1.4-0.4-1.4-1.1c0-0.5,0.2-1.3,0.5-2.4c0.3-1.1,0.4-1.9,0.5-2.4
			c0.1-0.8,0-1.4-0.3-1.8c1.3-0.5,2.5-0.8,3.5-0.8c1.2,0,1.8,0.3,1.8,0.9c-0.1,0.6-0.5,1.7-1.4,3.3c-0.9,1.6-1.4,2.7-1.4,3.4
			C177.6,148.6,177.6,148.8,177.7,149z"/>
		<path class="st0" d="M181,160.3c0.5,2.2,1.7,3.3,3.4,3.3c1.8,0,2.8-0.9,2.9-2.7c0.1-1-1.2-2.5-3.9-4.6c-0.9-1-1.3-2.1-1.2-3.5
			c0.2-2.2,1.1-3.9,2.9-5.2c1.6-1.2,3.5-1.7,5.8-1.7c3,0,4.4,0.6,4.3,1.7c-0.1,1-0.9,2-2.3,3c-1.1-1.6-2.1-2.3-3.2-2.3
			c-1.5,0-2.4,0.8-2.5,2.4c-0.1,0.8,0.4,1.6,1.3,2.4l2.7,2.1c0.9,1,1.4,2.2,1.2,3.6c-0.2,2.4-1.3,4.3-3.2,5.7
			c-1.7,1.3-3.9,1.9-6.4,1.9c-3.3,0-5-0.8-4.8-2.4C178.2,162.6,179.2,161.4,181,160.3z"/>
	</g>
	<g>
		<path class="st0" d="M458.8,146.7c1.5-0.5,2.8-0.7,3.9-0.7c1.6,0,2.3,0.5,2.2,1.6c0,0.5-0.2,1.1-0.5,1.8
			c-2.3,6.2-3.5,10.3-3.8,12.6c-0.1,1.1,0.1,2,0.7,2.7c-1.3,0.7-2.4,1-3.6,1c-2,0-2.9-0.9-2.8-2.6c0.2-1.7,0.8-4.1,2-7.4
			c1.2-3.2,1.9-5.7,2-7.4C459.1,147.9,459,147.3,458.8,146.7z M466.1,143c-1.1,0.5-2.2,0.7-3.1,0.7c-1.4,0-2-0.4-2-1.1
			c0-0.2,0.1-0.6,0.3-1.1c0.1-0.5,0.2-0.8,0.3-1.1c0-0.2,0-0.4-0.1-0.6c1.4-0.4,2.5-0.7,3.4-0.7c1.5,0,2.2,0.5,2.1,1.6
			C466.9,141.4,466.6,142.1,466.1,143z"/>
		<path class="st0" d="M474.5,153.5c3.3-5.2,6.3-7.7,9.2-7.7c2.2,0,3.2,1,3,3c-0.1,1.5-0.7,3.7-1.8,6.5c-1,2.9-1.6,5-1.8,6.5
			c-0.1,1.2,0.1,2.1,0.7,2.9c-1.2,0.7-2.4,1-3.6,1c-1.9,0-2.8-0.9-2.6-2.6c0.1-1.3,0.5-2.8,1.1-4.7c1.5-4.7,2.2-7.3,2.3-7.8
			c0-0.5-0.1-0.8-0.4-0.8c-1,0-2.8,2.1-5.3,6.2c-2.4,4-3.7,6.6-3.8,8c0,0.4,0,0.8,0.1,1.3c-1.1,0.3-2.1,0.4-3.1,0.4
			c-1.8,0-2.6-0.6-2.5-1.8c0.1-0.6,0.3-1.4,0.6-2.3l0.8-2.3c2-5.3,3-9.1,3.2-11.3c0-0.5,0-1-0.2-1.5c1.4-0.4,2.6-0.7,3.6-0.7
			c1.6,0,2.3,0.6,2.2,1.8C476.2,148.4,475.6,150.4,474.5,153.5z"/>
	</g>
</g>
</svg>
